<svg id="Keys" xmlns="http://www.w3.org/2000/svg" xmlns:xlink="http://www.w3.org/1999/xlink" viewBox="0 0 1920 1080"><defs><style>.cls-1{fill:url(#linear-gradient);}.cls-2{fill:url(#linear-gradient-2);}.cls-3{fill:url(#linear-gradient-3);}.cls-4,.cls-8{fill:none;stroke-linecap:round;stroke-linejoin:round;stroke-width:3px;}.cls-4{stroke:url(#linear-gradient-4);}.cls-5{fill:url(#linear-gradient-5);}.cls-6{fill:url(#linear-gradient-6);}.cls-7{fill:url(#linear-gradient-7);}.cls-8{stroke:url(#linear-gradient-8);}</style><linearGradient id="linear-gradient" x1="1490.42" y1="614.52" x2="1549.97" y2="614.52" gradientUnits="userSpaceOnUse"><stop offset="0" stop-color="#0d0b52"/><stop offset="1" stop-color="#5740d9"/></linearGradient><linearGradient id="linear-gradient-2" x1="1490.42" y1="610.49" x2="1549.97" y2="610.49" gradientUnits="userSpaceOnUse"><stop offset="0" stop-color="#5740d9"/><stop offset="1" stop-color="#21c7f9"/></linearGradient><linearGradient id="linear-gradient-3" x1="1490.42" y1="606.46" x2="1549.97" y2="606.46" xlink:href="#linear-gradient"/><linearGradient id="linear-gradient-4" x1="1510.64" y1="604.57" x2="1533.79" y2="604.57" xlink:href="#linear-gradient-2"/><linearGradient id="linear-gradient-5" x1="1546.85" y1="586.31" x2="1606.4" y2="586.31" xlink:href="#linear-gradient"/><linearGradient id="linear-gradient-6" x1="1546.85" y1="582.28" x2="1606.4" y2="582.28" gradientUnits="userSpaceOnUse"><stop offset="0" stop-color="#f49ba0"/><stop offset="1" stop-color="#ec758a"/></linearGradient><linearGradient id="linear-gradient-7" x1="1546.85" y1="578.25" x2="1606.4" y2="578.25" xlink:href="#linear-gradient"/><linearGradient id="linear-gradient-8" x1="1563.03" y1="580.32" x2="1586.19" y2="580.32" xlink:href="#linear-gradient-6"/></defs><title>2</title><path class="cls-1" d="M1519.3,598.85l-27.77,13.88a2,2,0,0,0,0,3.58l27.77,13.89a2,2,0,0,0,1.79,0l27.77-13.89a2,2,0,0,0,0-3.58l-27.77-13.88A2,2,0,0,0,1519.3,598.85Z"/><path class="cls-2" d="M1519.3,594.82l-27.77,13.88a2,2,0,0,0,0,3.58l27.77,13.89a2,2,0,0,0,1.79,0l27.77-13.89a2,2,0,0,0,0-3.58l-27.77-13.88A2,2,0,0,0,1519.3,594.82Z"/><path class="cls-3" d="M1519.3,590.79l-27.77,13.88a2,2,0,0,0,0,3.58l27.77,13.89a2,2,0,0,0,1.79,0l27.77-13.89a2,2,0,0,0,0-3.58l-27.77-13.88A2,2,0,0,0,1519.3,590.79Z"/><polyline class="cls-4" points="1520.2 598.64 1512.14 610.49 1532.29 604.45"/><path class="cls-5" d="M1575.73,570.63,1548,584.52a2,2,0,0,0,0,3.58L1575.73,602a2,2,0,0,0,1.79,0l27.77-13.88a2,2,0,0,0,0-3.58l-27.77-13.89A2,2,0,0,0,1575.73,570.63Z"/><path class="cls-6" d="M1575.73,566.6,1548,580.49a2,2,0,0,0,0,3.58L1575.73,598a2,2,0,0,0,1.79,0l27.77-13.88a2,2,0,0,0,0-3.58l-27.77-13.89A2,2,0,0,0,1575.73,566.6Z"/><path class="cls-7" d="M1575.73,562.57,1548,576.46a2,2,0,0,0,0,3.58l27.77,13.88a2,2,0,0,0,1.79,0L1605.29,580a2,2,0,0,0,0-3.58l-27.77-13.89A2,2,0,0,0,1575.73,562.57Z"/><polyline class="cls-8" points="1576.63 586.31 1584.69 574.34 1564.53 580.26"/></svg>